<svg id="Layer_1" enable-background="new 0 0 512 512" height="512" viewBox="0 0 512 512" width="512" xmlns="http://www.w3.org/2000/svg"><path d="m497 417.734h-100.653c18.3-17.112 30.809-40.324 34.313-66.4h2.074c43.708 0 79.267-35.559 79.267-79.282 0-43.709-35.567-79.251-79.25-79.251h-337.417c-8.284 0-15 6.716-15 15v128.55c0 32.152 13.583 61.072 35.308 81.384h-100.642c-8.284 0-15 6.716-15 15 0 43.707 35.559 79.265 79.267 79.265h353.467c43.707 0 79.266-35.558 79.266-79.266 0-8.285-6.716-15-15-15zm-15-145.667c0 27.166-22.101 49.267-49.267 49.267h-1.067v-98.534h1.083c27.176 0 49.251 22.123 49.251 49.267zm-371.666 64.266v-113.533h291.333v113.533c0 45.028-36.445 81.4-81.4 81.4h-128.55c-45.038.001-81.383-36.439-81.383-81.4zm322.399 145.667h-353.466c-21.938 0-40.572-14.412-46.932-34.267h447.331c-6.36 19.855-24.995 34.267-46.933 34.267z"/><path d="m128.536 111.399c0 16.012 6.183 31.069 17.421 42.448 5.807 6.124 15.52 6.26 21.492.287 5.901-5.901 5.819-15.402-.001-21.22-5.748-5.745-8.913-13.386-8.913-21.516 0-12.378 6.94-19.419 9.246-21.858 11.211-11.374 17.38-26.416 17.38-42.408 0-16.108-6.258-31.251-17.625-42.654-5.709-5.808-15.039-5.999-20.987-.38-6.022 5.687-6.29 15.186-.602 21.209.099.104.199.207.301.31 5.748 5.745 8.913 13.386 8.913 21.516 0 12.612-7.201 19.684-9.241 21.854-11.214 11.374-17.384 26.417-17.384 42.412z"/><path d="m227.741 111.399c0 16.012 6.183 31.069 17.421 42.448 5.807 6.124 15.52 6.26 21.492.287 5.901-5.901 5.819-15.402-.001-21.22-5.748-5.745-8.913-13.386-8.913-21.516 0-12.378 6.94-19.419 9.246-21.858 11.211-11.374 17.38-26.416 17.38-42.408 0-16.108-6.258-31.251-17.625-42.654-5.709-5.808-15.039-5.999-20.987-.38-6.022 5.687-6.29 15.186-.602 21.209.099.104.199.207.301.31 5.748 5.745 8.913 13.386 8.913 21.516 0 12.612-7.201 19.684-9.241 21.854-11.213 11.374-17.384 26.417-17.384 42.412z"/><path d="m327.06 111.399c0 16.012 6.183 31.069 17.421 42.448 5.807 6.124 15.52 6.26 21.492.287 5.901-5.901 5.819-15.402-.001-21.22-5.748-5.745-8.913-13.386-8.913-21.516 0-12.378 6.94-19.419 9.246-21.858 11.211-11.374 17.38-26.416 17.38-42.408 0-16.108-6.258-31.251-17.625-42.654-5.709-5.808-15.039-5.999-20.987-.38-6.022 5.687-6.29 15.186-.602 21.209.099.104.199.207.301.31 5.748 5.745 8.913 13.386 8.913 21.516 0 12.612-7.201 19.684-9.241 21.854-11.213 11.374-17.384 26.417-17.384 42.412z"/></svg>