<?xml version="1.0" encoding="UTF-8" standalone="no"?>
<!DOCTYPE svg PUBLIC "-//W3C//DTD SVG 1.1//EN" "http://www.w3.org/Graphics/SVG/1.1/DTD/svg11.dtd">
<svg width="100%" height="100%" viewBox="0 0 24 24" version="1.1" xmlns="http://www.w3.org/2000/svg" xmlns:xlink="http://www.w3.org/1999/xlink" xml:space="preserve" xmlns:serif="http://www.serif.com/" style="fill-rule:evenodd;clip-rule:evenodd;stroke-linejoin:round;stroke-miterlimit:2;">
    <path d="M24,18.286C24,19.548 22.977,20.571 21.714,20.571L2.286,20.571C1.023,20.571 0,19.548 0,18.286L0,5.714C0,4.452 1.023,3.429 2.286,3.429L21.714,3.429C22.977,3.429 24,4.452 24,5.714L24,18.286Z" style="fill:rgb(21,101,192);fill-rule:nonzero;"/>
    <path d="M6.963,9.143L5.463,13.618C5.463,13.618 5.082,11.725 5.044,11.487C4.19,9.538 2.929,9.647 2.929,9.647L4.415,15.429L4.415,15.427L6.221,15.427L8.719,9.143L6.963,9.143ZM8.394,15.429L10.034,15.429L11.026,9.143L9.365,9.143L8.394,15.429ZM20.005,9.143L18.278,9.143L15.587,15.429L17.217,15.429L17.553,14.531L19.607,14.531L19.782,15.429L21.275,15.429L20.005,9.143ZM18.007,13.33L18.901,10.955L19.368,13.33L18.007,13.33ZM13.354,10.975C13.354,10.629 13.638,10.371 14.454,10.371C14.985,10.371 15.592,10.756 15.592,10.756L15.858,9.437C15.858,9.437 15.082,9.142 14.321,9.142C12.595,9.142 11.706,9.967 11.706,11.012C11.706,12.901 13.979,12.642 13.979,13.613C13.979,13.779 13.847,14.163 12.901,14.163C11.951,14.163 11.324,13.815 11.324,13.815L11.041,15.082C11.041,15.082 11.649,15.428 12.822,15.428C13.999,15.428 15.631,14.548 15.631,13.284C15.631,11.763 13.354,11.654 13.354,10.975Z" style="fill:white;fill-rule:nonzero;"/>
    <path d="M5.264,12.54L4.712,9.827C4.712,9.827 4.462,9.239 3.813,9.239L1.276,9.239C1.276,9.239 4.511,10.194 5.264,12.54Z" style="fill:rgb(255,193,7);fill-rule:nonzero;"/>
</svg>
