<?xml version="1.0" encoding="UTF-8" standalone="no"?>
<!DOCTYPE svg PUBLIC "-//W3C//DTD SVG 1.1//EN" "http://www.w3.org/Graphics/SVG/1.1/DTD/svg11.dtd">
<svg width="100%" height="100%" viewBox="0 0 24 10" version="1.1" xmlns="http://www.w3.org/2000/svg" xmlns:xlink="http://www.w3.org/1999/xlink" xml:space="preserve" xmlns:serif="http://www.serif.com/" style="fill-rule:evenodd;clip-rule:evenodd;stroke-linejoin:round;stroke-miterlimit:2;">
    <path d="M11.319,2.242L12.992,2.242L12.992,8.047L11.319,8.047L11.319,2.242ZM4.226,6.355C4.226,4.35 1.679,4.711 1.679,3.952L1.68,3.954C1.68,3.692 1.898,3.59 2.247,3.586C2.753,3.586 3.398,3.741 3.905,4.018L3.905,2.434C3.354,2.214 2.802,2.127 2.251,2.127C0.9,2.127 0,2.839 0,4.029C0,5.893 2.532,5.59 2.532,6.394C2.532,6.704 2.266,6.807 1.894,6.807C1.343,6.807 0.63,6.576 0.071,6.269L0.071,7.785C0.69,8.053 1.316,8.167 1.89,8.167C3.274,8.166 4.226,7.567 4.226,6.355ZM11.314,1.732L12.987,1.372L12.987,0L11.314,0.36L11.314,1.732ZM16.468,2.129C15.815,2.129 15.395,2.439 15.163,2.656L15.077,2.239L13.61,2.239L13.61,10L15.275,9.643L15.279,7.741C15.519,7.919 15.875,8.166 16.457,8.166C17.65,8.166 18.737,7.287 18.737,5.15C18.741,3.194 17.639,2.129 16.468,2.129ZM16.071,6.77C15.68,6.771 15.449,6.627 15.287,6.452L15.276,3.951C15.449,3.758 15.689,3.617 16.071,3.617C16.678,3.617 17.098,4.307 17.098,5.186C17.103,6.092 16.69,6.77 16.071,6.77ZM21.592,2.129C20.009,2.129 19.045,3.489 19.045,5.203C19.045,7.23 20.181,8.167 21.802,8.167C22.597,8.167 23.193,7.985 23.647,7.731L23.647,6.465C23.193,6.696 22.672,6.836 22.012,6.836C21.363,6.836 20.793,6.605 20.718,5.817L23.977,5.817C23.984,5.73 23.999,5.377 23.999,5.215L24,5.215C24,3.49 23.175,2.129 21.592,2.129ZM20.703,4.577C20.703,3.819 21.165,3.501 21.581,3.501C21.99,3.501 22.425,3.82 22.425,4.577L20.703,4.577ZM7.452,3.675L7.452,2.242L6.188,2.242L6.184,0.783L4.559,1.132L4.552,6.528C4.552,7.525 5.295,8.169 6.281,8.169C6.829,8.169 7.23,8.066 7.452,7.945L7.452,6.664C7.238,6.751 6.188,7.062 6.188,6.069L6.188,3.674L7.452,3.674L7.452,3.675ZM10.917,3.789L10.917,2.243C10.692,2.163 9.916,2.016 9.526,2.739L9.424,2.243L7.984,2.243L7.984,8.048L9.646,8.048L9.646,4.141C10.04,3.618 10.704,3.721 10.917,3.789Z" style="fill-rule:nonzero;"/>
</svg>
