<?xml version="1.0" encoding="UTF-8" standalone="no"?>
<!DOCTYPE svg PUBLIC "-//W3C//DTD SVG 1.1//EN" "http://www.w3.org/Graphics/SVG/1.1/DTD/svg11.dtd">
<svg width="100%" height="100%" viewBox="0 0 48 48" version="1.1" xmlns="http://www.w3.org/2000/svg" xmlns:xlink="http://www.w3.org/1999/xlink" xml:space="preserve" xmlns:serif="http://www.serif.com/" style="fill-rule:evenodd;clip-rule:evenodd;stroke-linejoin:round;stroke-miterlimit:2;">
    <path d="M3.31,0.729C2.77,1.309 2.461,2.202 2.461,3.362L2.461,44.623C2.461,45.783 2.77,46.676 3.331,47.235L3.477,47.359L26.596,24.24L26.596,23.72L3.457,0.606L3.31,0.729Z" style="fill:url(#_Linear1);"/>
    <path d="M34.287,31.976L26.576,24.263L26.576,23.723L34.29,16.009L34.456,16.112L43.58,21.297C46.192,22.77 46.192,25.196 43.58,26.689L34.456,31.874C34.454,31.873 34.287,31.976 34.287,31.976Z" style="fill:url(#_Linear2);"/>
    <path d="M34.454,31.873L26.576,23.993L3.31,47.258C4.16,48.171 5.59,48.275 7.189,47.382L34.454,31.873" style="fill:url(#_Linear3);"/>
    <path d="M34.454,16.115L7.189,0.626C5.593,-0.287 4.16,-0.163 3.31,0.75L26.574,23.993L34.454,16.115Z" style="fill:url(#_Linear4);"/>
    <defs>
        <linearGradient id="_Linear1" x1="0" y1="0" x2="1" y2="0" gradientUnits="userSpaceOnUse" gradientTransform="matrix(-42.1834,42.2137,-42.2137,-42.1834,40.3699,-12.9526)"><stop offset="0" style="stop-color:rgb(4,126,214);stop-opacity:1"/><stop offset="1" style="stop-color:rgb(80,230,255);stop-opacity:1"/></linearGradient>
        <linearGradient id="_Linear2" x1="0" y1="0" x2="1" y2="0" gradientUnits="userSpaceOnUse" gradientTransform="matrix(-25.8657,3.16764e-15,-3.16764e-15,-25.8657,46.9825,23.9909)"><stop offset="0" style="stop-color:rgb(255,218,28);stop-opacity:1"/><stop offset="1" style="stop-color:rgb(254,183,5);stop-opacity:1"/></linearGradient>
        <linearGradient id="_Linear3" x1="0" y1="0" x2="1" y2="0" gradientUnits="userSpaceOnUse" gradientTransform="matrix(-42.4646,42.471,-42.471,-42.4646,30.1634,28.2749)"><stop offset="0" style="stop-color:rgb(217,65,79);stop-opacity:1"/><stop offset="1" style="stop-color:rgb(140,25,63);stop-opacity:1"/></linearGradient>
        <linearGradient id="_Linear4" x1="0" y1="0" x2="1" y2="0" gradientUnits="userSpaceOnUse" gradientTransform="matrix(18.9613,18.968,-18.968,18.9613,-2.55017,-13.0003)"><stop offset="0" style="stop-color:rgb(51,196,129);stop-opacity:1"/><stop offset="1" style="stop-color:rgb(97,227,167);stop-opacity:1"/></linearGradient>
    </defs>
</svg>
