<?xml version="1.0" encoding="UTF-8"?>
<!-- Generator: Adobe Illustrator 24.3.0, SVG Export Plug-In . SVG Version: 6.00 Build 0)  -->
<svg xmlns="http://www.w3.org/2000/svg" xmlns:xlink="http://www.w3.org/1999/xlink" version="1.1" id="Capa_1" x="0px" y="0px" viewBox="0 0 511.913 511.913" style="enable-background:new 0 0 511.913 511.913;" xml:space="preserve" width="512" height="512">
<g>
	<linearGradient id="SVGID_1_" gradientUnits="userSpaceOnUse" x1="0" y1="255.9566" x2="157.5801" y2="255.9566">
		<stop offset="0" style="stop-color:#2B327B"/>
		<stop offset="1" style="stop-color:#0078C0"/>
	</linearGradient>
	<path style="fill:url(#SVGID_1_);" d="M62.029,64.16c-32.38,0-61.966,29.206-61.966,61.962c0,18.03-0.014,89.389-0.028,160.323   c5.929,3.73,34.479,12.889,45.959,13.7c25.142,1.778,40.732-6.535,43.145-27.487l-0.127-77.82h55.616v76.042   c-2.921,43.554-41.135,52.426-99.297,49.494c-15.054-0.76-35.521-4.641-45.303-7.189C0.014,384.179,0,447.753,0,447.753   s72.609,0,96.79,0c26.412,0,60.791-24.68,60.791-62.21c0-62.981,0-321.383,0-321.383S86.726,64.16,62.029,64.16z"/>
	<linearGradient id="SVGID_2_" gradientUnits="userSpaceOnUse" x1="177.5797" y1="255.9566" x2="335.1598" y2="255.9566">
		<stop offset="0" style="stop-color:#872D34"/>
		<stop offset="1" style="stop-color:#FF1146"/>
	</linearGradient>
	<path style="fill:url(#SVGID_2_);" d="M239.608,64.16c-32.379,0-61.966,29.206-61.966,61.962c0,11.423-0.005,44.253-0.013,84.816   c19.429-15.175,50.743-22.616,90.592-19.546c22.672,1.745,39.447,4.909,48.589,7.618v26.919   c-10.078-5.028-29.967-12.518-46.559-13.713c-37.585-2.709-57.311,14.904-57.311,43.372c0,25.621,15.24,47.545,57.143,44.625   c13.821-0.963,36.823-9.016,46.612-13.673l0.115,26.116c-8.424,2.657-34.632,8.363-59.299,8.564   c-37.135,0.303-63.337-7.584-79.9-20.381c-0.016,75.797-0.031,146.914-0.031,146.914s72.608,0,96.789,0   c26.412,0,60.792-24.68,60.792-62.21c0-62.981,0-321.383,0-321.383S264.306,64.16,239.608,64.16z"/>
	<linearGradient id="SVGID_3_" gradientUnits="userSpaceOnUse" x1="385.316" y1="280.7397" x2="439.8528" y2="280.7397">
		<stop offset="0" style="stop-color:#008144"/>
		<stop offset="1" style="stop-color:#00BB36"/>
	</linearGradient>
	<path style="fill:url(#SVGID_3_);" d="M423.282,263.752c-10.602,0.099-33.721-0.107-37.904-0.007l-0.063,33.893l37.903,0.124   c7.367,0,16.634-6.311,16.634-17.304C439.853,270.731,431.854,263.671,423.282,263.752z"/>
	<linearGradient id="SVGID_4_" gradientUnits="userSpaceOnUse" x1="385.1254" y1="229.2231" x2="435.2503" y2="229.2231">
		<stop offset="0" style="stop-color:#008144"/>
		<stop offset="1" style="stop-color:#00BB36"/>
	</linearGradient>
	<path style="fill:url(#SVGID_4_);" d="M435.25,229.735c0-9.726-7.31-16.287-15.078-16.106c-10.92,0.254-30.614-0.27-34.919,0.112   l-0.127,30.855l35.808,0.254C426.89,244.729,435.25,239.271,435.25,229.735z"/>
	<linearGradient id="SVGID_5_" gradientUnits="userSpaceOnUse" x1="354.3331" y1="255.9566" x2="511.9132" y2="255.9566">
		<stop offset="0" style="stop-color:#008144"/>
		<stop offset="1" style="stop-color:#00BB36"/>
	</linearGradient>
	<path style="fill:url(#SVGID_5_);" d="M416.363,64.16c-32.38,0-61.967,29.206-61.967,61.962c0,9.814-0.004,35.444-0.01,68.19   h92.007c18.307,0,39.868,7.831,39.868,30.092c0,11.938-6.355,25.46-29.265,29.842v0.508c13.375,0,36.57,7.83,36.57,31.448   c0,24.38-25.057,31.151-38.475,31.151l-100.729,0.101c-0.014,69.252-0.028,130.298-0.028,130.298s72.609,0,96.789,0   c26.413,0,60.792-24.68,60.792-62.21c0-62.981,0-321.383,0-321.383S441.059,64.16,416.363,64.16z"/>
</g>















</svg>
