<?xml version="1.0" encoding="UTF-8" standalone="no"?>
<!DOCTYPE svg PUBLIC "-//W3C//DTD SVG 1.1//EN" "http://www.w3.org/Graphics/SVG/1.1/DTD/svg11.dtd">
<svg width="100%" height="100%" viewBox="0 0 24 24" version="1.1" xmlns="http://www.w3.org/2000/svg" xmlns:xlink="http://www.w3.org/1999/xlink" xml:space="preserve" xmlns:serif="http://www.serif.com/" style="fill-rule:evenodd;clip-rule:evenodd;stroke-linejoin:round;stroke-miterlimit:2;">
    <g>
        <g>
            <g>
                <path d="M7.137,4.759C3.194,4.784 -0,7.997 -0,11.959C-0,15.934 3.219,19.153 7.181,19.153C9.039,19.153 10.734,18.441 12.013,17.276C12.277,17.036 12.517,16.778 12.743,16.507L11.269,16.507C11.074,16.268 10.891,16.022 10.734,15.764L13.272,15.764C13.43,15.518 13.569,15.26 13.688,14.995L10.312,14.995C10.198,14.75 10.098,14.498 10.009,14.239L13.984,14.239C14.224,13.521 14.356,12.753 14.356,11.959C14.356,11.43 14.299,10.913 14.192,10.416L9.802,10.416C9.858,10.157 9.928,9.906 10.003,9.66L13.978,9.66C13.89,9.395 13.783,9.137 13.669,8.891L10.306,8.891C10.425,8.633 10.564,8.381 10.715,8.135L13.254,8.135C13.083,7.865 12.901,7.606 12.699,7.367L11.288,7.367C11.509,7.109 11.748,6.863 12.006,6.643C10.728,5.477 9.033,4.765 7.175,4.765C7.169,4.759 7.156,4.759 7.137,4.759Z" style="fill:rgb(147,27,29);fill-rule:nonzero;"/>
            </g>
            <g>
                <path d="M24,11.959C24,15.934 20.787,19.159 16.819,19.159C12.85,19.159 9.638,15.94 9.638,11.965C9.638,7.991 12.85,4.765 16.819,4.765C20.781,4.759 24,7.978 24,11.959C24,11.953 24,11.959 24,11.959Z" style="fill:rgb(241,102,34);fill-rule:nonzero;"/>
            </g>
            <g>
                <path d="M24,12.041C24,16.016 20.787,19.241 16.819,19.241C12.85,19.241 9.638,16.022 9.638,12.047L9.638,12.041C9.638,8.066 12.85,4.841 16.819,4.841C20.781,4.841 24,8.06 24,12.041C24,12.035 24,12.035 24,12.041Z" style="fill:rgb(247,152,29);fill-rule:nonzero;"/>
            </g>
            <g>
                <path d="M7.137,4.841C3.194,4.866 -0,8.079 -0,12.041C-0,16.016 3.219,19.241 7.181,19.241C9.039,19.241 10.734,18.529 12.013,17.364C12.277,17.124 12.517,16.866 12.743,16.595L11.269,16.595C11.074,16.356 10.891,16.11 10.734,15.852L13.272,15.852C13.43,15.606 13.569,15.348 13.688,15.083L10.312,15.083C10.198,14.838 10.098,14.586 10.009,14.328L13.984,14.328C14.224,13.609 14.356,12.841 14.356,12.047C14.356,11.518 14.299,11.002 14.192,10.504L9.802,10.504C9.858,10.246 9.928,9.994 10.003,9.748L13.978,9.748C13.89,9.483 13.783,9.225 13.669,8.98L10.306,8.98C10.425,8.721 10.564,8.469 10.715,8.224L13.254,8.224C13.083,7.953 12.901,7.694 12.699,7.455L11.288,7.455C11.509,7.197 11.748,6.951 12.006,6.731C10.728,5.565 9.033,4.854 7.175,4.854C7.169,4.841 7.156,4.841 7.137,4.841Z" style="fill:rgb(203,32,38);fill-rule:nonzero;"/>
            </g>
            <g>
                <g>
                    <path d="M9.764,13.874L9.858,13.225C9.808,13.225 9.726,13.25 9.663,13.25C9.398,13.25 9.367,13.112 9.386,13.005L9.6,11.676L10.003,11.676L10.098,10.957L9.713,10.957L9.789,10.51L9.033,10.51C9.014,10.529 8.58,13.03 8.58,13.332C8.58,13.786 8.831,13.987 9.191,13.981C9.474,13.969 9.688,13.893 9.764,13.874Z" style="fill:white;fill-rule:nonzero;"/>
                </g>
                <g>
                    <path d="M10.009,12.627C10.009,13.71 10.721,13.969 11.332,13.969C11.893,13.969 12.139,13.843 12.139,13.843L12.271,13.106C12.271,13.106 11.843,13.294 11.458,13.294C10.639,13.294 10.784,12.683 10.784,12.683L12.34,12.683C12.34,12.683 12.441,12.186 12.441,11.984C12.441,11.48 12.189,10.863 11.351,10.863C10.576,10.863 10.009,11.688 10.009,12.627ZM11.351,11.55C11.78,11.55 11.704,12.035 11.704,12.072L10.854,12.072C10.854,12.022 10.935,11.55 11.351,11.55Z" style="fill:white;fill-rule:nonzero;"/>
                </g>
                <g>
                    <path d="M16.189,13.874L16.328,13.036C16.328,13.036 15.95,13.225 15.698,13.225C15.156,13.225 14.935,12.809 14.935,12.362C14.935,11.455 15.402,10.957 15.924,10.957C16.315,10.957 16.624,11.178 16.624,11.178L16.75,10.365C16.75,10.365 16.283,10.176 15.887,10.176C15.005,10.176 14.142,10.945 14.142,12.387C14.142,13.345 14.608,13.975 15.521,13.975C15.78,13.975 16.189,13.874 16.189,13.874Z" style="fill:white;fill-rule:nonzero;"/>
                </g>
                <g>
                    <path d="M5.562,10.876C5.039,10.876 4.636,11.046 4.636,11.046L4.523,11.707C4.523,11.707 4.857,11.575 5.354,11.575C5.638,11.575 5.846,11.606 5.846,11.839C5.846,11.978 5.82,12.035 5.82,12.035C5.82,12.035 5.594,12.016 5.493,12.016C4.831,12.016 4.139,12.299 4.139,13.15C4.139,13.824 4.592,13.975 4.876,13.975C5.417,13.975 5.644,13.622 5.663,13.622L5.638,13.918L6.312,13.918L6.614,11.808C6.614,10.901 5.833,10.876 5.562,10.876ZM5.726,12.589C5.739,12.721 5.644,13.32 5.184,13.32C4.945,13.32 4.882,13.137 4.882,13.03C4.882,12.822 4.995,12.57 5.556,12.57C5.688,12.57 5.701,12.589 5.726,12.589Z" style="fill:white;fill-rule:nonzero;"/>
                </g>
                <g>
                    <path d="M7.326,13.95C7.496,13.95 8.485,13.994 8.485,12.973C8.485,12.022 7.572,12.211 7.572,11.827C7.572,11.638 7.723,11.575 7.994,11.575C8.101,11.575 8.517,11.613 8.517,11.613L8.611,10.939C8.611,10.939 8.34,10.882 7.906,10.882C7.339,10.882 6.765,11.109 6.765,11.883C6.765,12.759 7.723,12.671 7.723,13.043C7.723,13.288 7.458,13.307 7.25,13.307C6.891,13.307 6.57,13.187 6.57,13.187L6.469,13.855C6.488,13.861 6.683,13.95 7.326,13.95Z" style="fill:white;fill-rule:nonzero;"/>
                </g>
                <g>
                    <path d="M22.526,10.265L22.362,11.291C22.362,11.291 22.072,10.894 21.625,10.894C20.926,10.894 20.34,11.739 20.34,12.715C20.34,13.345 20.649,13.956 21.291,13.956C21.751,13.956 22.003,13.635 22.003,13.635L21.972,13.906L22.715,13.906L23.301,10.265L22.526,10.265ZM22.173,12.268C22.173,12.671 21.972,13.213 21.556,13.213C21.279,13.213 21.153,12.98 21.153,12.62C21.153,12.028 21.417,11.631 21.757,11.631C22.028,11.631 22.173,11.82 22.173,12.268Z" style="fill:white;fill-rule:nonzero;"/>
                </g>
                <g>
                    <path d="M1.424,13.912L1.89,11.159L1.959,13.912L2.488,13.912L3.471,11.159L3.036,13.912L3.817,13.912L4.422,10.265L3.213,10.265L2.457,12.501L2.413,10.265L1.298,10.265L0.687,13.912L1.424,13.912Z" style="fill:white;fill-rule:nonzero;"/>
                </g>
                <g>
                    <path d="M13.203,13.918C13.424,12.652 13.468,11.619 13.997,11.808C14.091,11.317 14.18,11.128 14.28,10.92C14.28,10.92 14.23,10.907 14.135,10.907C13.795,10.907 13.537,11.373 13.537,11.373L13.606,10.945L12.894,10.945L12.416,13.912L13.203,13.912L13.203,13.918Z" style="fill:white;fill-rule:nonzero;"/>
                </g>
                <g>
                    <path d="M17.959,10.876C17.436,10.876 17.033,11.046 17.033,11.046L16.92,11.707C16.92,11.707 17.254,11.575 17.751,11.575C18.035,11.575 18.243,11.606 18.243,11.839C18.243,11.978 18.217,12.035 18.217,12.035C18.217,12.035 17.991,12.016 17.89,12.016C17.228,12.016 16.535,12.299 16.535,13.15C16.535,13.824 16.989,13.975 17.272,13.975C17.814,13.975 18.047,13.622 18.054,13.622L18.028,13.918L18.702,13.918L19.005,11.808C19.005,10.901 18.23,10.876 17.959,10.876ZM18.123,12.589C18.135,12.721 18.041,13.32 17.581,13.32C17.342,13.32 17.285,13.137 17.285,13.03C17.285,12.822 17.398,12.57 17.959,12.57C18.085,12.57 18.098,12.589 18.123,12.589Z" style="fill:white;fill-rule:nonzero;"/>
                </g>
                <g>
                    <path d="M19.622,13.918C19.843,12.652 19.887,11.619 20.416,11.808C20.51,11.317 20.598,11.128 20.699,10.92C20.699,10.92 20.649,10.907 20.554,10.907C20.214,10.907 19.956,11.373 19.956,11.373L20.025,10.945L19.313,10.945L18.835,13.912L19.622,13.912L19.622,13.918Z" style="fill:white;fill-rule:nonzero;"/>
                </g>
            </g>
        </g>
    </g>
</svg>
