<?xml version="1.0" encoding="UTF-8" standalone="no"?>
<!DOCTYPE svg PUBLIC "-//W3C//DTD SVG 1.1//EN" "http://www.w3.org/Graphics/SVG/1.1/DTD/svg11.dtd">
<svg width="100%" height="100%" viewBox="0 0 512 512" version="1.1" xmlns="http://www.w3.org/2000/svg" xmlns:xlink="http://www.w3.org/1999/xlink" xml:space="preserve" xmlns:serif="http://www.serif.com/" fill="currentColor" style="fill-rule:evenodd;clip-rule:evenodd;stroke-linejoin:round;stroke-miterlimit:2;">
    <path d="M452.19,91.576L429.876,115.18C461.479,153.749 480.452,203.062 480.452,256.815C480.452,380.333 380.32,480.452 256.815,480.452C133.31,480.452 33.178,380.32 33.178,256.815C33.178,133.31 133.31,33.178 256.815,33.178C307.553,33.178 354.339,50.086 391.863,78.552L414.313,54.813C370.745,20.494 315.77,-0 256,-0C114.609,-0 0,114.609 0,256C0,397.391 114.609,512 256,512C397.391,512 512,397.391 512,256C512,193.392 489.524,136.053 452.203,91.576L452.19,91.576Z" fill="currentColor" fill-rule="nonzero"/>
    <path d="M94.591,259.463C94.971,175.615 163.079,106.759 246.914,105.496C280.011,104.994 310.758,114.894 336.127,132.129L356.757,110.318C327.639,90.408 292.302,78.946 254.248,79.489C157.81,80.847 79.571,160.16 79.462,256.598C79.408,305.855 99.439,350.428 131.803,382.588C134.519,385.29 138.973,385.073 141.459,382.167L142.599,380.836C144.895,378.16 144.677,374.181 142.124,371.736C112.667,343.434 94.374,303.574 94.577,259.45L94.591,259.463Z" fill="currentColor" fill-rule="nonzero"/>
    <path d="M378.405,174.936C394.58,199.381 404.005,228.689 404.005,260.196C404.005,302.854 386.73,341.465 358.807,369.455C354.883,373.38 354.597,379.654 358.223,383.864L360.967,387.056C364.837,391.565 371.682,392.04 376.069,388.034C411.732,355.602 434.127,308.83 434.127,256.815C434.127,217.661 421.429,181.482 399.944,152.147L378.391,174.936L378.405,174.936Z" fill="currentColor" fill-rule="nonzero"/>
    <path d="M345.172,215.814C351.093,228.974 354.421,243.56 354.421,258.933C354.421,287.671 342.891,313.719 324.203,332.691C321.772,335.163 321.569,339.047 323.837,341.682L324.828,342.836C327.3,345.702 331.646,345.906 334.416,343.325C357.504,321.704 371.94,290.944 371.94,256.815C371.94,236.96 367.051,218.259 358.427,201.826L345.186,215.828L345.172,215.814Z" fill="currentColor" fill-rule="nonzero"/>
    <path d="M249.264,153.79C267.096,153.79 283.882,158.245 298.603,166.081L310.84,153.152C293.836,143.713 274.266,138.335 253.433,138.335C209.282,138.335 170.78,162.482 150.395,198.295C148.86,200.984 149.947,204.433 152.717,205.805C155.23,207.054 158.272,206.172 159.752,203.781C178.276,173.795 211.427,153.79 249.264,153.79Z" fill="currentColor" fill-rule="nonzero"/>
    <path d="M440.103,79.666L430.922,70.716L274.864,214.456C269.106,211.835 262.723,210.368 255.973,210.368C230.767,210.368 210.327,230.807 210.327,256.014C210.327,262.274 211.59,268.236 213.872,273.655L183.451,305.285C177.883,311.071 178.059,320.292 183.858,325.86L186.398,328.305C192.183,333.873 201.405,333.696 206.973,327.897L236.444,297.259C242.365,300.07 248.992,301.645 255.986,301.645C281.193,301.645 301.632,281.206 301.632,256C301.632,249.06 300.07,242.487 297.313,236.606L440.116,79.666L440.103,79.666ZM256.801,276.48C245.488,276.48 236.321,267.313 236.321,256C236.321,244.687 245.488,235.52 256.801,235.52C268.114,235.52 277.281,244.687 277.281,256C277.281,267.313 268.114,276.48 256.801,276.48Z" fill="currentColor" fill-rule="nonzero"/>
    <path d="M273.071,370.283C286.163,370.283 296.797,380.917 296.797,394.009C296.797,398.776 295.398,403.203 292.967,406.911C287.834,397.201 277.96,390.342 266.457,389.432C263.415,384.991 259.572,381.27 255.172,378.459C259.517,373.434 265.941,370.27 273.085,370.27L273.071,370.283ZM252.211,370.134C250.337,370.134 248.503,369.251 247.349,367.608L243.261,361.782C241.387,359.106 242.039,355.399 244.714,353.524C247.403,351.637 251.097,352.302 252.971,354.978L257.059,360.804C258.933,363.479 258.282,367.187 255.606,369.061C254.574,369.781 253.379,370.134 252.211,370.134ZM276.249,363.697C276.073,363.697 275.896,363.697 275.719,363.669C272.46,363.384 270.043,360.505 270.328,357.246L270.953,350.156C271.238,346.897 274.131,344.48 277.376,344.765C280.636,345.05 283.053,347.929 282.768,351.189L282.143,358.278C281.872,361.361 279.291,363.697 276.249,363.697ZM298.793,374.208C297.272,374.208 295.765,373.624 294.597,372.47C292.275,370.161 292.275,366.399 294.597,364.09L299.635,359.052C301.958,356.73 305.706,356.73 308.015,359.052C310.337,361.361 310.337,365.123 308.015,367.431L302.976,372.47C301.822,373.624 300.301,374.208 298.78,374.208L298.793,374.208ZM309.291,396.766C306.249,396.766 303.655,394.444 303.397,391.347C303.112,388.088 305.53,385.209 308.789,384.924L315.878,384.299C319.138,384.014 322.017,386.431 322.302,389.69C322.587,392.95 320.17,395.829 316.91,396.114L309.821,396.739C309.645,396.752 309.468,396.766 309.291,396.766ZM308.694,424.879C307.526,424.879 306.331,424.525 305.299,423.806L299.472,419.718C296.783,417.844 296.132,414.136 298.019,411.461C299.893,408.772 303.587,408.12 306.276,410.007L312.103,414.095C314.792,415.969 315.444,419.677 313.556,422.352C312.401,423.996 310.568,424.879 308.694,424.879ZM263.823,447.368L210.45,447.368C198.987,447.368 189.657,438.038 189.657,426.576C189.657,417.912 195.076,410.347 202.763,407.264C204.895,391.972 218.055,380.157 233.931,380.157C245.896,380.157 256.638,386.961 261.935,397.309C262.56,397.269 263.198,397.241 263.823,397.241C277.648,397.241 288.893,408.486 288.893,422.312C288.893,436.137 277.648,447.382 263.823,447.382L263.823,447.368Z" fill="currentColor" fill-rule="nonzero"/>
</svg>
