<?xml version="1.0" encoding="UTF-8" standalone="no"?>
<!DOCTYPE svg PUBLIC "-//W3C//DTD SVG 1.1//EN" "http://www.w3.org/Graphics/SVG/1.1/DTD/svg11.dtd">
<svg width="100%" height="100%" viewBox="0 0 512 512" version="1.1" xmlns="http://www.w3.org/2000/svg" xmlns:xlink="http://www.w3.org/1999/xlink" xml:space="preserve" xmlns:serif="http://www.serif.com/" style="fill-rule:evenodd;clip-rule:evenodd;stroke-linejoin:round;stroke-miterlimit:2;">
    <path d="M512,128L512,384C512,454.645 454.645,512 384,512L128,512C57.355,512 0,454.645 0,384L0,128C0,57.355 57.355,0 128,0L384,0C454.645,0 512,57.355 512,128Z" style="fill:url(#_Linear1);"/>
    <path d="M400.47,134.93L384.04,152.31C407.31,180.71 421.28,217.02 421.28,256.6C421.28,347.55 347.55,421.27 256.61,421.27C165.67,421.27 91.94,347.54 91.94,256.6C91.94,165.66 165.67,91.93 256.61,91.93C293.97,91.93 328.42,104.38 356.05,125.34L372.58,107.86C340.5,82.59 300.02,67.5 256.01,67.5C151.9,67.5 67.51,151.89 67.51,256C67.51,360.11 151.9,444.5 256.01,444.5C360.12,444.5 444.51,360.11 444.51,256C444.51,209.9 427.96,167.68 400.48,134.93L400.47,134.93Z" style="fill:rgb(185,216,210);fill-rule:nonzero;"/>
    <path d="M137.16,258.55C137.44,196.81 187.59,146.11 249.32,145.18C273.69,144.81 296.33,152.1 315.01,164.79L330.2,148.73C308.76,134.07 282.74,125.63 254.72,126.03C183.71,127.03 126.1,185.43 126.02,256.44C125.98,292.71 140.73,325.53 164.56,349.21C166.56,351.2 169.84,351.04 171.67,348.9L172.51,347.92C174.2,345.95 174.04,343.02 172.16,341.22C150.47,320.38 137,291.03 137.15,258.54L137.16,258.55Z" style="fill:rgb(185,216,210);fill-rule:nonzero;"/>
    <path d="M346.14,196.31C358.05,214.31 364.99,235.89 364.99,259.09C364.99,290.5 352.27,318.93 331.71,339.54C328.82,342.43 328.61,347.05 331.28,350.15L333.3,352.5C336.15,355.82 341.19,356.17 344.42,353.22C370.68,329.34 387.17,294.9 387.17,256.6C387.17,227.77 377.82,201.13 362,179.53L346.13,196.31L346.14,196.31Z" style="fill:rgb(185,216,210);fill-rule:nonzero;"/>
    <path d="M321.67,226.41C326.03,236.1 328.48,246.84 328.48,258.16C328.48,279.32 319.99,298.5 306.23,312.47C304.44,314.29 304.29,317.15 305.96,319.09L306.69,319.94C308.51,322.05 311.71,322.2 313.75,320.3C330.75,304.38 341.38,281.73 341.38,256.6C341.38,241.98 337.78,228.21 331.43,216.11L321.68,226.42L321.67,226.41Z" style="fill:rgb(185,216,210);fill-rule:nonzero;"/>
    <path d="M251.05,180.74C264.18,180.74 276.54,184.02 287.38,189.79L296.39,180.27C283.87,173.32 269.46,169.36 254.12,169.36C221.61,169.36 193.26,187.14 178.25,213.51C177.12,215.49 177.92,218.03 179.96,219.04C181.81,219.96 184.05,219.31 185.14,217.55C198.78,195.47 223.19,180.74 251.05,180.74Z" style="fill:rgb(185,216,210);fill-rule:nonzero;"/>
    <path d="M391.57,126.16L384.81,119.57L269.9,225.41C265.66,223.48 260.96,222.4 255.99,222.4C237.43,222.4 222.38,237.45 222.38,256.01C222.38,260.62 223.31,265.01 224.99,269L202.59,292.29C198.49,296.55 198.62,303.34 202.89,307.44L204.76,309.24C209.02,313.34 215.81,313.21 219.91,308.94L241.61,286.38C245.97,288.45 250.85,289.61 256,289.61C274.56,289.61 289.61,274.56 289.61,256C289.61,250.89 288.46,246.05 286.43,241.72L391.58,126.16L391.57,126.16ZM256.6,271.08C248.27,271.08 241.52,264.33 241.52,256C241.52,247.67 248.27,240.92 256.6,240.92C264.93,240.92 271.68,247.67 271.68,256C271.68,264.33 264.93,271.08 256.6,271.08Z" style="fill:rgb(185,216,210);fill-rule:nonzero;"/>
    <path d="M268.58,340.15C278.22,340.15 286.05,347.98 286.05,357.62C286.05,361.13 285.02,364.39 283.23,367.12C279.45,359.97 272.18,354.92 263.71,354.25C261.47,350.98 258.64,348.24 255.4,346.17C258.6,342.47 263.33,340.14 268.59,340.14L268.58,340.15ZM253.22,340.04C251.84,340.04 250.49,339.39 249.64,338.18L246.63,333.89C245.25,331.92 245.73,329.19 247.7,327.81C249.68,326.42 252.4,326.91 253.78,328.88L256.79,333.17C258.17,335.14 257.69,337.87 255.72,339.25C254.96,339.78 254.08,340.04 253.22,340.04ZM270.92,335.3C270.79,335.3 270.66,335.3 270.53,335.28C268.13,335.07 266.35,332.95 266.56,330.55L267.02,325.33C267.23,322.93 269.36,321.15 271.75,321.36C274.15,321.57 275.93,323.69 275.72,326.09L275.26,331.31C275.06,333.58 273.16,335.3 270.92,335.3ZM287.52,343.04C286.4,343.04 285.29,342.61 284.43,341.76C282.72,340.06 282.72,337.29 284.43,335.59L288.14,331.88C289.85,330.17 292.61,330.17 294.31,331.88C296.02,333.58 296.02,336.35 294.31,338.05L290.6,341.76C289.75,342.61 288.63,343.04 287.51,343.04L287.52,343.04ZM295.25,359.65C293.01,359.65 291.1,357.94 290.91,355.66C290.7,353.26 292.48,351.14 294.88,350.93L300.1,350.47C302.5,350.26 304.62,352.04 304.83,354.44C305.04,356.84 303.26,358.96 300.86,359.17L295.64,359.63C295.51,359.64 295.38,359.65 295.25,359.65ZM294.81,380.35C293.95,380.35 293.07,380.09 292.31,379.56L288.02,376.55C286.04,375.17 285.56,372.44 286.95,370.47C288.33,368.49 291.05,368.01 293.03,369.4L297.32,372.41C299.3,373.79 299.78,376.52 298.39,378.49C297.54,379.7 296.19,380.35 294.81,380.35ZM261.77,396.91L222.47,396.91C214.03,396.91 207.16,390.04 207.16,381.6C207.16,375.22 211.15,369.65 216.81,367.38C218.38,356.12 228.07,347.42 239.76,347.42C248.57,347.42 256.48,352.43 260.38,360.05C260.84,360.02 261.31,360 261.77,360C271.95,360 280.23,368.28 280.23,378.46C280.23,388.64 271.95,396.92 261.77,396.92L261.77,396.91Z" style="fill:rgb(185,216,210);fill-rule:nonzero;"/>
    <defs>
        <linearGradient id="_Linear1" x1="0" y1="0" x2="1" y2="0" gradientUnits="userSpaceOnUse" gradientTransform="matrix(-412.766,413.901,-413.901,-412.766,461.412,48.8945)"><stop offset="0" style="stop-color:rgb(15,122,107);stop-opacity:1"/><stop offset="1" style="stop-color:rgb(26,94,85);stop-opacity:1"/></linearGradient>
    </defs>
</svg>
